<svg xmlns="http://www.w3.org/2000/svg" xmlns:xlink="http://www.w3.org/1999/xlink" width="100" zoomAndPan="magnify" viewBox="0 0 75 38.999999" height="52" preserveAspectRatio="xMidYMid meet" version="1.0"><defs><clipPath id="31c8fc98a8"><path d="M 0.453125 11.714844 L 45.238281 11.714844 L 45.238281 28.621094 L 0.453125 28.621094 Z M 0.453125 11.714844 " clip-rule="nonzero"/></clipPath><clipPath id="3dc9052b27"><path d="M 12.875 11.714844 L 42.894531 11.714844 C 43.734375 11.714844 44.488281 12.152344 44.894531 12.875 C 45.296875 13.597656 45.296875 14.496094 44.863281 15.191406 L 38.988281 25.121094 C 37.714844 27.292969 35.367188 28.59375 32.878906 28.59375 L 2.855469 28.59375 C 2.019531 28.59375 1.265625 28.160156 0.859375 27.4375 C 0.453125 26.710938 0.453125 25.816406 0.886719 25.121094 L 6.765625 15.191406 C 8.039062 13.046875 10.355469 11.714844 12.875 11.714844 Z M 12.875 11.714844 " clip-rule="nonzero"/></clipPath></defs><g clip-path="url(#31c8fc98a8)"><g clip-path="url(#3dc9052b27)"><path fill="#00bf63" d="M -1.195312 11.714844 L -1.195312 28.621094 L 46.917969 28.621094 L 46.917969 11.714844 Z M 4.59375 17.765625 Z M 4.59375 17.765625 " fill-opacity="1" fill-rule="nonzero"/></g></g><path fill="#ffffff" d="M 13.339844 15.804688 L 13.339844 17.859375 L 10.328125 17.859375 L 10.328125 25.789062 L 7.808594 25.789062 L 7.808594 17.859375 L 4.828125 17.859375 L 4.828125 15.804688 " fill-opacity="1" fill-rule="nonzero"/><path fill="#ffffff" d="M 17.628906 17.945312 L 17.628906 19.246094 C 18.179688 18.320312 18.988281 17.859375 20.117188 17.828125 L 20.117188 20.058594 C 19.425781 20 18.84375 20.117188 18.382812 20.40625 C 17.949219 20.695312 17.6875 21.128906 17.628906 21.679688 L 17.628906 25.617188 L 15.167969 25.617188 L 15.167969 17.945312 Z M 17.628906 17.945312 " fill-opacity="1" fill-rule="nonzero"/><path fill="#ffffff" d="M 23.863281 17.828125 C 24.90625 17.828125 25.71875 18.0625 26.324219 18.554688 C 26.902344 19.046875 27.222656 19.710938 27.222656 20.578125 L 27.222656 25.589844 L 24.820312 25.589844 L 24.820312 24.71875 C 24.328125 25.386719 23.546875 25.703125 22.476562 25.703125 C 21.664062 25.703125 21.027344 25.472656 20.5625 25.039062 C 20.101562 24.605469 19.839844 24.023438 19.839844 23.300781 C 19.839844 22.578125 20.101562 22 20.59375 21.59375 C 21.113281 21.1875 21.839844 20.984375 22.765625 20.984375 L 24.789062 20.984375 L 24.789062 20.867188 C 24.789062 20.492188 24.675781 20.203125 24.414062 19.972656 C 24.152344 19.769531 23.808594 19.652344 23.285156 19.652344 C 22.589844 19.652344 21.839844 19.855469 21 20.289062 L 20.304688 18.667969 C 21.546875 18.117188 22.734375 17.828125 23.863281 17.828125 Z M 23.226562 24.054688 C 23.605469 24.054688 23.953125 23.964844 24.242188 23.765625 C 24.53125 23.5625 24.734375 23.300781 24.789062 23.011719 L 24.789062 22.316406 L 23.226562 22.316406 C 22.476562 22.316406 22.128906 22.605469 22.128906 23.15625 C 22.128906 23.445312 22.214844 23.675781 22.417969 23.820312 C 22.621094 23.964844 22.878906 24.054688 23.226562 24.054688 Z M 23.226562 24.054688 " fill-opacity="1" fill-rule="nonzero"/><path fill="#ffffff" d="M 30.902344 17.828125 C 32.03125 17.828125 33.074219 18.117188 34.058594 18.699219 L 33.21875 20.289062 C 32.265625 19.769531 31.453125 19.507812 30.789062 19.507812 C 30.296875 19.507812 30.035156 19.683594 30.035156 20.03125 C 30.035156 20.230469 30.179688 20.375 30.441406 20.492188 C 30.703125 20.609375 31.046875 20.722656 31.453125 20.839844 C 31.859375 20.925781 32.234375 21.070312 32.640625 21.214844 C 33.046875 21.359375 33.363281 21.621094 33.652344 21.96875 C 33.945312 22.316406 34.058594 22.722656 34.058594 23.214844 C 34.058594 23.996094 33.769531 24.574219 33.164062 25.007812 C 32.554688 25.441406 31.800781 25.644531 30.847656 25.644531 C 29.484375 25.644531 28.328125 25.296875 27.402344 24.574219 L 28.183594 23.011719 C 29.082031 23.648438 30.007812 23.964844 30.902344 23.964844 C 31.453125 23.964844 31.742188 23.792969 31.742188 23.445312 C 31.742188 23.242188 31.597656 23.070312 31.339844 22.953125 C 31.078125 22.808594 30.730469 22.691406 30.355469 22.605469 C 29.976562 22.492188 29.574219 22.375 29.195312 22.199219 C 28.820312 22.054688 28.472656 21.796875 28.210938 21.476562 C 27.949219 21.128906 27.804688 20.722656 27.804688 20.230469 C 27.804688 19.449219 28.097656 18.871094 28.675781 18.4375 C 29.226562 18.03125 29.976562 17.828125 30.902344 17.828125 Z M 30.902344 17.828125 " fill-opacity="1" fill-rule="nonzero"/><path fill="#ffffff" d="M 39.792969 17.828125 C 40.632812 17.828125 41.328125 18.089844 41.820312 18.640625 C 42.34375 19.160156 42.574219 19.882812 42.574219 20.78125 L 42.574219 25.617188 L 40.113281 25.617188 L 40.113281 21.449219 C 40.113281 21.015625 39.996094 20.636719 39.765625 20.40625 C 39.535156 20.144531 39.1875 20 38.78125 20 C 38.316406 20 37.914062 20.175781 37.652344 20.523438 C 37.363281 20.867188 37.21875 21.304688 37.21875 21.824219 L 37.21875 25.617188 L 34.757812 25.617188 L 34.757812 15.050781 L 37.21875 15.050781 L 37.21875 19.191406 C 37.769531 18.292969 38.636719 17.828125 39.792969 17.828125 Z M 39.792969 17.828125 " fill-opacity="1" fill-rule="nonzero"/><path fill="#00bf63" d="M 52.175781 23.347656 L 52.667969 25.054688 C 52.058594 25.402344 51.394531 25.574219 50.613281 25.574219 C 49.859375 25.574219 49.222656 25.375 48.761719 24.9375 C 48.296875 24.503906 48.066406 23.925781 48.066406 23.144531 L 48.066406 19.757812 L 46.992188 19.757812 L 46.992188 18.164062 L 48.066406 18.164062 L 48.066406 16.023438 L 50.496094 16.023438 L 50.496094 18.136719 L 52.496094 18.136719 L 52.496094 19.757812 L 50.496094 19.757812 L 50.496094 22.765625 C 50.496094 23.058594 50.554688 23.289062 50.671875 23.40625 C 50.785156 23.550781 50.960938 23.605469 51.21875 23.605469 C 51.453125 23.605469 51.769531 23.519531 52.175781 23.347656 Z M 52.175781 23.347656 " fill-opacity="1" fill-rule="nonzero"/><path fill="#00bf63" d="M 56.554688 17.671875 C 57.597656 17.671875 58.410156 17.902344 59.015625 18.394531 C 59.597656 18.886719 59.914062 19.554688 59.914062 20.421875 L 59.914062 25.429688 L 57.511719 25.429688 L 57.511719 24.5625 C 57.019531 25.226562 56.238281 25.546875 55.167969 25.546875 C 54.355469 25.546875 53.71875 25.316406 53.253906 24.882812 C 52.792969 24.445312 52.53125 23.867188 52.53125 23.144531 C 52.53125 22.421875 52.792969 21.839844 53.285156 21.4375 C 53.804688 21.03125 54.53125 20.828125 55.457031 20.828125 L 57.484375 20.828125 L 57.484375 20.710938 C 57.484375 20.335938 57.367188 20.046875 57.105469 19.816406 C 56.84375 19.613281 56.5 19.496094 55.976562 19.496094 C 55.28125 19.496094 54.53125 19.699219 53.691406 20.132812 L 52.996094 18.511719 C 54.238281 17.960938 55.398438 17.671875 56.554688 17.671875 Z M 55.890625 23.925781 C 56.265625 23.925781 56.613281 23.839844 56.902344 23.636719 C 57.191406 23.433594 57.394531 23.171875 57.453125 22.882812 L 57.453125 22.1875 L 55.890625 22.1875 C 55.136719 22.1875 54.789062 22.476562 54.789062 23.027344 C 54.789062 23.316406 54.875 23.550781 55.078125 23.695312 C 55.28125 23.839844 55.542969 23.925781 55.890625 23.925781 Z M 55.890625 23.925781 " fill-opacity="1" fill-rule="nonzero"/><path fill="#00bf63" d="M 60.902344 14.921875 L 63.363281 14.921875 L 63.363281 25.460938 L 60.902344 25.460938 Z M 60.902344 14.921875 " fill-opacity="1" fill-rule="nonzero"/><path fill="#00bf63" d="M 67.945312 22.507812 L 67.136719 23.375 L 67.136719 25.460938 L 64.675781 25.460938 L 64.675781 14.921875 L 67.136719 14.921875 L 67.136719 20.480469 L 69.683594 17.789062 L 72.460938 17.789062 L 69.625 20.742188 L 72.519531 25.460938 L 69.59375 25.460938 Z M 67.945312 22.507812 " fill-opacity="1" fill-rule="nonzero"/><path fill="#00bf63" d="M 72.613281 23.519531 C 72.84375 23.289062 73.105469 23.203125 73.449219 23.203125 C 73.796875 23.203125 74.085938 23.316406 74.320312 23.519531 C 74.550781 23.75 74.667969 24.011719 74.667969 24.390625 C 74.667969 24.734375 74.550781 25.027344 74.320312 25.257812 C 74.085938 25.488281 73.796875 25.574219 73.449219 25.574219 C 73.105469 25.574219 72.8125 25.460938 72.613281 25.257812 C 72.378906 25.027344 72.292969 24.734375 72.292969 24.390625 C 72.292969 24.042969 72.410156 23.75 72.613281 23.519531 Z M 72.613281 23.519531 " fill-opacity="1" fill-rule="nonzero"/><path fill="#ffffff" d="M 6.417969 15.796875 L 6.535156 15.566406 " fill-opacity="1" fill-rule="nonzero"/><path fill="#ffffff" d="M 5.027344 18.113281 L 6.417969 15.796875 " fill-opacity="1" fill-rule="nonzero"/></svg>