<svg xmlns="http://www.w3.org/2000/svg" xmlns:xlink="http://www.w3.org/1999/xlink" width="500" zoomAndPan="magnify" viewBox="0 0 375 374.999991" height="500" preserveAspectRatio="xMidYMid meet" version="1.0"><defs><g/><clipPath id="ea10d8049b"><path d="M 90 165.609375 L 206 165.609375 L 206 209.382812 L 90 209.382812 Z M 90 165.609375 " clip-rule="nonzero"/></clipPath><clipPath id="9b9bcbbade"><path d="M 122.207031 165.609375 L 199.972656 165.609375 C 202.125 165.609375 204.109375 166.765625 205.175781 168.632812 C 206.238281 170.5 206.21875 172.796875 205.125 174.644531 L 189.902344 200.347656 C 186.585938 205.949219 180.5625 209.382812 174.054688 209.382812 L 96.285156 209.382812 C 94.136719 209.382812 92.152344 208.230469 91.085938 206.363281 C 90.019531 204.492188 90.039062 202.199219 91.136719 200.347656 L 106.355469 174.644531 C 109.671875 169.046875 115.699219 165.609375 122.207031 165.609375 Z M 122.207031 165.609375 " clip-rule="nonzero"/></clipPath></defs><g clip-path="url(#ea10d8049b)"><g clip-path="url(#9b9bcbbade)"><path fill="#00bf63" d="M 85.785156 165.609375 L 210.472656 165.609375 L 210.472656 209.382812 L 85.785156 209.382812 Z M 85.785156 165.609375 " fill-opacity="1" fill-rule="nonzero"/></g></g><g fill="#ffffff" fill-opacity="1"><g transform="translate(101.103835, 202.015865)"><g><path d="M 22.296875 -20.53125 L 14.515625 -20.53125 L 14.515625 0 L 7.96875 0 L 7.96875 -20.53125 L 0.265625 -20.53125 L 0.265625 -25.84375 L 22.296875 -25.84375 Z M 22.296875 -20.53125 "/></g></g></g><g fill="#ffffff" fill-opacity="1"><g transform="translate(121.525221, 202.015865)"><g><path d="M 8.921875 -19.859375 L 8.921875 -16.515625 C 10.316406 -18.898438 12.46875 -20.113281 15.375 -20.15625 L 15.375 -14.40625 C 13.550781 -14.582031 12.0625 -14.28125 10.90625 -13.5 C 9.75 -12.726562 9.085938 -11.628906 8.921875 -10.203125 L 8.921875 0 L 2.546875 0 L 2.546875 -19.859375 Z M 8.921875 -19.859375 "/></g></g></g><g fill="#ffffff" fill-opacity="1"><g transform="translate(135.163982, 202.015865)"><g><path d="M 11.46875 -20.15625 C 14.1875 -20.15625 16.300781 -19.519531 17.8125 -18.25 C 19.332031 -16.988281 20.101562 -15.226562 20.125 -12.96875 L 20.125 0 L 13.890625 0 L 13.890625 -2.28125 C 12.585938 -0.5625 10.5625 0.296875 7.8125 0.296875 C 5.726562 0.296875 4.070312 -0.28125 2.84375 -1.4375 C 1.613281 -2.59375 1 -4.09375 1 -5.9375 C 1 -7.820312 1.65625 -9.285156 2.96875 -10.328125 C 4.28125 -11.378906 6.164062 -11.914062 8.625 -11.9375 L 13.859375 -11.9375 L 13.859375 -12.234375 C 13.859375 -13.222656 13.53125 -13.992188 12.875 -14.546875 C 12.226562 -15.097656 11.265625 -15.375 9.984375 -15.375 C 8.191406 -15.375 6.210938 -14.820312 4.046875 -13.71875 L 2.25 -17.90625 C 5.46875 -19.40625 8.539062 -20.15625 11.46875 -20.15625 Z M 9.765625 -4.015625 C 10.773438 -4.015625 11.660156 -4.265625 12.421875 -4.765625 C 13.179688 -5.273438 13.660156 -5.9375 13.859375 -6.75 L 13.859375 -8.515625 L 9.84375 -8.515625 C 7.925781 -8.515625 6.96875 -7.800781 6.96875 -6.375 C 6.96875 -5.632812 7.210938 -5.054688 7.703125 -4.640625 C 8.191406 -4.222656 8.878906 -4.015625 9.765625 -4.015625 Z M 9.765625 -4.015625 "/></g></g></g><g fill="#ffffff" fill-opacity="1"><g transform="translate(155.179886, 202.015865)"><g><path d="M 9.65625 -20.15625 C 12.582031 -20.15625 15.3125 -19.40625 17.84375 -17.90625 L 15.671875 -13.78125 C 13.210938 -15.113281 11.125 -15.78125 9.40625 -15.78125 C 8.101562 -15.78125 7.453125 -15.320312 7.453125 -14.40625 C 7.453125 -13.914062 7.804688 -13.503906 8.515625 -13.171875 C 9.222656 -12.835938 10.09375 -12.535156 11.125 -12.265625 C 12.15625 -12.003906 13.179688 -11.671875 14.203125 -11.265625 C 15.222656 -10.859375 16.085938 -10.210938 16.796875 -9.328125 C 17.515625 -8.441406 17.875 -7.359375 17.875 -6.078125 C 17.875 -4.085938 17.097656 -2.53125 15.546875 -1.40625 C 14.003906 -0.289062 11.992188 0.265625 9.515625 0.265625 C 5.992188 0.265625 3.019531 -0.671875 0.59375 -2.546875 L 2.609375 -6.59375 C 4.953125 -4.945312 7.300781 -4.125 9.65625 -4.125 C 11.101562 -4.125 11.828125 -4.578125 11.828125 -5.484375 C 11.828125 -6.003906 11.476562 -6.4375 10.78125 -6.78125 C 10.082031 -7.125 9.226562 -7.429688 8.21875 -7.703125 C 7.207031 -7.972656 6.195312 -8.3125 5.1875 -8.71875 C 4.1875 -9.125 3.332031 -9.753906 2.625 -10.609375 C 1.925781 -11.472656 1.578125 -12.554688 1.578125 -13.859375 C 1.578125 -15.847656 2.328125 -17.394531 3.828125 -18.5 C 5.328125 -19.601562 7.269531 -20.15625 9.65625 -20.15625 Z M 9.65625 -20.15625 "/></g></g></g><g fill="#ffffff" fill-opacity="1"><g transform="translate(171.988786, 202.015865)"><g><path d="M 15.78125 -20.15625 C 17.96875 -20.15625 19.722656 -19.460938 21.046875 -18.078125 C 22.367188 -16.691406 23.03125 -14.84375 23.03125 -12.53125 L 23.03125 0 L 16.65625 0 L 16.65625 -10.765625 C 16.65625 -11.921875 16.34375 -12.832031 15.71875 -13.5 C 15.09375 -14.175781 14.238281 -14.515625 13.15625 -14.515625 C 11.925781 -14.515625 10.941406 -14.070312 10.203125 -13.1875 C 9.472656 -12.3125 9.109375 -11.179688 9.109375 -9.796875 L 9.109375 0 L 2.734375 0 L 2.734375 -27.34375 L 9.109375 -27.34375 L 9.109375 -16.59375 C 10.503906 -18.925781 12.726562 -20.113281 15.78125 -20.15625 Z M 15.78125 -20.15625 "/></g></g></g><g fill="#00bf63" fill-opacity="1"><g transform="translate(205.857545, 201.674372)"><g><path d="M 14.109375 -5.484375 L 15.375 -1.0625 C 13.820312 -0.15625 12.050781 0.296875 10.0625 0.296875 C 8.09375 0.296875 6.5 -0.25 5.28125 -1.34375 C 4.070312 -2.4375 3.46875 -3.992188 3.46875 -6.015625 L 3.46875 -14.78125 L 0.703125 -14.78125 L 0.703125 -18.953125 L 3.46875 -18.953125 L 3.46875 -24.46875 L 9.796875 -24.46875 L 9.796875 -18.984375 L 15 -18.984375 L 15 -14.78125 L 9.796875 -14.78125 L 9.796875 -7 C 9.796875 -6.238281 9.945312 -5.679688 10.25 -5.328125 C 10.5625 -4.972656 11.023438 -4.804688 11.640625 -4.828125 C 12.234375 -4.828125 13.054688 -5.046875 14.109375 -5.484375 Z M 14.109375 -5.484375 "/></g></g></g><g fill="#00bf63" fill-opacity="1"><g transform="translate(219.788351, 201.674372)"><g><path d="M 11.46875 -20.15625 C 14.1875 -20.15625 16.300781 -19.519531 17.8125 -18.25 C 19.332031 -16.988281 20.101562 -15.226562 20.125 -12.96875 L 20.125 0 L 13.890625 0 L 13.890625 -2.28125 C 12.585938 -0.5625 10.5625 0.296875 7.8125 0.296875 C 5.726562 0.296875 4.070312 -0.28125 2.84375 -1.4375 C 1.613281 -2.59375 1 -4.09375 1 -5.9375 C 1 -7.820312 1.65625 -9.285156 2.96875 -10.328125 C 4.28125 -11.378906 6.164062 -11.914062 8.625 -11.9375 L 13.859375 -11.9375 L 13.859375 -12.234375 C 13.859375 -13.222656 13.53125 -13.992188 12.875 -14.546875 C 12.226562 -15.097656 11.265625 -15.375 9.984375 -15.375 C 8.191406 -15.375 6.210938 -14.820312 4.046875 -13.71875 L 2.25 -17.90625 C 5.46875 -19.40625 8.539062 -20.15625 11.46875 -20.15625 Z M 9.765625 -4.015625 C 10.773438 -4.015625 11.660156 -4.265625 12.421875 -4.765625 C 13.179688 -5.273438 13.660156 -5.9375 13.859375 -6.75 L 13.859375 -8.515625 L 9.84375 -8.515625 C 7.925781 -8.515625 6.96875 -7.800781 6.96875 -6.375 C 6.96875 -5.632812 7.210938 -5.054688 7.703125 -4.640625 C 8.191406 -4.222656 8.878906 -4.015625 9.765625 -4.015625 Z M 9.765625 -4.015625 "/></g></g></g><g fill="#00bf63" fill-opacity="1"><g transform="translate(239.800319, 201.674372)"><g><path d="M 9.109375 0 L 2.734375 0 L 2.734375 -27.34375 L 9.109375 -27.34375 Z M 9.109375 0 "/></g></g></g><g fill="#00bf63" fill-opacity="1"><g transform="translate(249.529587, 201.674372)"><g><path d="M 11.234375 -7.671875 L 9.109375 -5.421875 L 9.109375 0 L 2.734375 0 L 2.734375 -27.34375 L 9.109375 -27.34375 L 9.109375 -12.90625 L 15.671875 -19.859375 L 22.890625 -19.859375 L 15.59375 -12.234375 L 23.109375 0 L 15.546875 0 Z M 11.234375 -7.671875 "/></g></g></g><g fill="#00bf63" fill-opacity="1"><g transform="translate(270.647213, 201.674372)"><g><path d="M 2.25 -5.015625 C 2.8125 -5.578125 3.546875 -5.859375 4.453125 -5.859375 C 5.367188 -5.859375 6.113281 -5.578125 6.6875 -5.015625 C 7.269531 -4.453125 7.5625 -3.710938 7.5625 -2.796875 C 7.5625 -1.890625 7.269531 -1.144531 6.6875 -0.5625 C 6.113281 0.0078125 5.367188 0.296875 4.453125 0.296875 C 3.546875 0.296875 2.8125 0.0078125 2.25 -0.5625 C 1.6875 -1.144531 1.40625 -1.890625 1.40625 -2.796875 C 1.40625 -3.710938 1.6875 -4.453125 2.25 -5.015625 Z M 2.25 -5.015625 "/></g></g></g></svg>