<?xml version="1.0" encoding="utf-8"?>
<!-- Generator: Adobe Illustrator 27.0.0, SVG Export Plug-In . SVG Version: 6.00 Build 0)  -->
<svg version="1.1" xmlns="http://www.w3.org/2000/svg" xmlns:xlink="http://www.w3.org/1999/xlink" x="0px" y="0px"
	 viewBox="0 0 500 500" style="enable-background:new 0 0 500 500;" xml:space="preserve">
<style type="text/css">
	.st0{clip-path:url(#SVGID_00000103977057472742858580000001915149779658585490_);}
	.st1{clip-path:url(#SVGID_00000071552678700805649010000015571630079436898965_);}
	.st2{fill:#00BF63;}
	.st3{fill:#FFFFFF;}
	.st4{fill:none;}
</style>
<g id="Layer_1">
	<g>
		<defs>
			<rect id="SVGID_1_" x="114.6" y="221.4" width="154.7" height="58.4"/>
		</defs>
		<clipPath id="SVGID_00000028283910922381493940000007860670419714939060_">
			<use xlink:href="#SVGID_1_"  style="overflow:visible;"/>
		</clipPath>
		<g style="clip-path:url(#SVGID_00000028283910922381493940000007860670419714939060_);">
			<g>
				<defs>
					<path id="SVGID_00000060750350777305456770000007938325406721729942_" d="M157.5,221.4h103.7c2.9,0,5.5,1.5,6.9,4
						c1.4,2.5,1.4,5.6-0.1,8l-20.3,34.3c-4.4,7.5-12.5,12-21.1,12H122.9c-2.9,0-5.5-1.5-6.9-4c-1.4-2.5-1.4-5.6,0.1-8l20.3-34.3
						C140.8,226,148.8,221.4,157.5,221.4z"/>
				</defs>
				<clipPath id="SVGID_00000152974329761534882400000007536516206014693261_">
					<use xlink:href="#SVGID_00000060750350777305456770000007938325406721729942_"  style="overflow:visible;"/>
				</clipPath>
				<g style="clip-path:url(#SVGID_00000152974329761534882400000007536516206014693261_);">
					<path class="st2" d="M108.9,221.4v58.4h166.2v-58.4H108.9z M128.9,242.3L128.9,242.3L128.9,242.3z"/>
				</g>
			</g>
		</g>
	</g>
	<g>
		<g transform="translate(101.103835, 202.015865)">
			<g>
				<path class="st3" d="M58,33.5v7.1H47.6V68h-8.7V40.6H28.6v-7.1"/>
				<path class="st3" d="M28.6,33.5H58"/>
			</g>
		</g>
	</g>
	<g>
		<g transform="translate(121.525221, 202.015865)">
			<g>
				<path class="st3" d="M52.4,40.9v4.5c1.9-3.2,4.7-4.8,8.6-4.9v7.7c-2.4-0.2-4.4,0.2-6,1.2c-1.5,1-2.4,2.5-2.6,4.4v13.6h-8.5V40.9
					H52.4z"/>
			</g>
		</g>
	</g>
	<g>
		<g transform="translate(135.163982, 202.015865)">
			<g>
				<path class="st3" d="M60.3,40.5c3.6,0,6.4,0.8,8.5,2.5c2,1.7,3.1,4,3.1,7v17.3h-8.3v-3c-1.7,2.3-4.4,3.4-8.1,3.4
					c-2.8,0-5-0.8-6.6-2.3c-1.6-1.5-2.5-3.5-2.5-6c0-2.5,0.9-4.5,2.6-5.9c1.8-1.4,4.3-2.1,7.5-2.1h7V51c0-1.3-0.4-2.3-1.3-3.1
					c-0.9-0.7-2.1-1.1-3.9-1.1c-2.4,0-5,0.7-7.9,2.2l-2.4-5.6C52.3,41.5,56.4,40.5,60.3,40.5z M58.1,62c1.3,0,2.5-0.3,3.5-1
					c1-0.7,1.7-1.6,1.9-2.6V56h-5.4c-2.6,0-3.8,1-3.8,2.9c0,1,0.3,1.8,1,2.3C56,61.7,56.9,62,58.1,62z"/>
			</g>
		</g>
	</g>
	<g>
		<g transform="translate(155.179886, 202.015865)">
			<g>
				<path class="st3" d="M64.6,40.5c3.9,0,7.5,1,10.9,3L72.6,49c-3.3-1.8-6.1-2.7-8.4-2.7c-1.7,0-2.6,0.6-2.6,1.8
					c0,0.7,0.5,1.2,1.4,1.6c0.9,0.4,2.1,0.8,3.5,1.2c1.4,0.3,2.7,0.8,4.1,1.3c1.4,0.5,2.5,1.4,3.5,2.6c1,1.2,1.4,2.6,1.4,4.3
					c0,2.7-1,4.7-3.1,6.2c-2.1,1.5-4.7,2.2-8,2.2c-4.7,0-8.7-1.2-11.9-3.7l2.7-5.4c3.1,2.2,6.3,3.3,9.4,3.3c1.9,0,2.9-0.6,2.9-1.8
					c0-0.7-0.5-1.3-1.4-1.7c-0.9-0.5-2.1-0.9-3.4-1.2c-1.3-0.4-2.7-0.8-4-1.4c-1.3-0.5-2.5-1.4-3.4-2.5c-0.9-1.2-1.4-2.6-1.4-4.3
					c0-2.7,1-4.7,3-6.2C58.8,41.2,61.4,40.5,64.6,40.5z"/>
			</g>
		</g>
	</g>
	<g>
		<g transform="translate(171.988786, 202.015865)">
			<g>
				<path class="st3" d="M78.5,40.5c2.9,0,5.3,0.9,7,2.8c1.8,1.8,2.6,4.3,2.6,7.4v16.7h-8.5V53c0-1.5-0.4-2.8-1.2-3.6
					c-0.8-0.9-2-1.4-3.4-1.4c-1.6,0-3,0.6-3.9,1.8c-1,1.2-1.5,2.7-1.5,4.5v13.1h-8.5V30.9h8.5v14.3C71.5,42.1,74.5,40.5,78.5,40.5z"
					/>
			</g>
		</g>
	</g>
	<g>
		<g transform="translate(205.857545, 201.674372)">
			<g>
				<path class="st2" d="M87.4,59.9l1.7,5.9C87,67,84.7,67.6,82,67.6c-2.6,0-4.8-0.7-6.4-2.2c-1.6-1.5-2.4-3.5-2.4-6.2V47.5h-3.7V42
					h3.7v-7.4h8.4v7.3h6.9v5.6h-6.9v10.4c0,1,0.2,1.8,0.6,2.2c0.4,0.5,1,0.7,1.9,0.7C84.9,60.8,86,60.5,87.4,59.9z"/>
			</g>
		</g>
	</g>
	<g>
		<g transform="translate(219.788351, 201.674372)">
			<g>
				<path class="st2" d="M88.6,40.3c3.6,0,6.4,0.8,8.5,2.5c2,1.7,3.1,4,3.1,7v17.3h-8.3v-3c-1.7,2.3-4.4,3.4-8.1,3.4
					c-2.8,0-5-0.8-6.6-2.3c-1.6-1.5-2.5-3.5-2.5-6c0-2.5,0.9-4.5,2.6-5.9c1.8-1.4,4.3-2.1,7.5-2.1h7v-0.4c0-1.3-0.4-2.3-1.3-3.1
					c-0.9-0.7-2.1-1.1-3.9-1.1c-2.4,0-5,0.7-7.9,2.2l-2.4-5.6C80.6,41.3,84.6,40.3,88.6,40.3z M86.3,61.9c1.3,0,2.5-0.3,3.5-1
					c1-0.7,1.7-1.6,1.9-2.6v-2.4h-5.4c-2.6,0-3.8,1-3.8,2.9c0,1,0.3,1.8,1,2.3C84.2,61.6,85.1,61.9,86.3,61.9z"/>
			</g>
		</g>
	</g>
	<g>
		<g transform="translate(239.800319, 201.674372)">
			<g>
				<path class="st2" d="M92.1,67.2h-8.5V30.8h8.5V67.2z"/>
			</g>
		</g>
	</g>
	<g>
		<g transform="translate(249.529587, 201.674372)">
			<g>
				<path class="st2" d="M98.2,57l-2.8,3v7.2h-8.5V30.8h8.5V50l8.8-9.3h9.6L104,50.9l10,16.3h-10.1L98.2,57z"/>
			</g>
		</g>
	</g>
	<g>
		<g transform="translate(270.647213, 201.674372)">
			<g>
				<path class="st2" d="M93.2,60.5c0.8-0.8,1.7-1.1,2.9-1.1c1.2,0,2.2,0.4,3,1.1c0.8,0.8,1.2,1.7,1.2,3c0,1.2-0.4,2.2-1.2,3
					c-0.8,0.8-1.8,1.1-3,1.1c-1.2,0-2.2-0.4-2.9-1.1c-0.8-0.8-1.1-1.8-1.1-3C92.1,62.3,92.5,61.3,93.2,60.5z"/>
			</g>
		</g>
	</g>
	<line class="st4" x1="130.4" y1="243.5" x2="122.2" y2="244.5"/>
</g>
<g id="bg">
	<line class="st3" x1="135.2" y1="235.5" x2="135.6" y2="234.7"/>
	<line class="st3" x1="130.4" y1="243.5" x2="135.2" y2="235.5"/>
	<line class="st4" x1="130.6" y1="243.2" x2="130.6" y2="243.2"/>
	<line class="st4" x1="130.9" y1="242.8" x2="130.9" y2="242.8"/>
	<line class="st4" x1="134.9" y1="235.9" x2="135.9" y2="235.9"/>
</g>
</svg>
